<?xml version="1.0" encoding="utf-8"?>
<!-- Generator: Adobe Illustrator 19.2.0, SVG Export Plug-In . SVG Version: 6.00 Build 0)  -->
<!DOCTYPE svg PUBLIC "-//W3C//DTD SVG 1.1//EN" "http://www.w3.org/Graphics/SVG/1.1/DTD/svg11.dtd">
<svg version="1.1" id="Layer_1" xmlns="http://www.w3.org/2000/svg" xmlns:xlink="http://www.w3.org/1999/xlink" x="0px" y="0px"
	 viewBox="0 0 100 61.7" style="enable-background:new 0 0 100 61.7;" xml:space="preserve">
<style type="text/css">
	.st0{fill:#CC0000;}
</style>
<path class="st0" d="M98,56.5c-0.1,0-13.8-4-25.2-11.3c-10.2-6.4-14-12.1-14.8-13.4V24h0.1c9.2,2.4,26.2,1.7,26.2,1.7
	S75.5,18,66.8,14.5c-0.3-0.1-0.6-0.2-0.9-0.3h15.3c1.4,0,2.5-1.1,2.5-2.5s-1.1-2.5-2.5-2.5H58V2.7c0-0.7-0.5-1.3-1.1-1.6
	c-0.7-0.2-1.4,0-1.8,0.6L50,9.1h-7.6V5.9c0-1-0.8-1.8-1.8-1.8c-0.2,0-0.3,0-0.5,0.1l0,0c-9.8,0.3-17.7,6.4-17.7,14
	c0,3.2,1.4,6.1,3.7,8.4c-0.3-0.1-0.7-0.1-1-0.1c-2.1,0-3.9,1.1-5,2.7c-0.1-0.1-0.2-0.1-0.4-0.2c-3.8-1.8-6-4.2-6-4.3
	c-0.7-0.7-1.8-0.8-2.5-0.2c-0.7,0.7-0.8,1.8-0.2,2.5c0.1,0.1,2.6,3,7.1,5.1c0.3,0.2,0.6,0.3,0.9,0.4c0,1.3,0.5,2.5,1.2,3.5
	c-0.2,0.2-0.4,0.4-0.5,0.6c0,0-1.5,3.1-4,6.4l-5.9,6c-3.9,3.1-8.2,5.7-8.3,5.8c-0.8,0.5-1.1,1.6-0.6,2.5c0.3,0.6,0.9,0.9,1.5,0.9
	c0.3,0,0.6-0.1,0.9-0.3s7.9-4.8,12.3-9.2c4.5-4.5,7.2-10.1,7.3-10.3v-0.1c0.1,0,0.2,0.1,0.4,0.1v19.1c0,1,0.8,1.8,1.8,1.8
	s1.8-0.8,1.8-1.8V38.1c2.3-0.8,4-3,4-5.6c0-1-0.2-1.9-0.7-2.7c0.7,0.4,1.4,0.7,2.2,1v26.6c0,1,0.8,1.8,1.8,1.8s1.8-0.8,1.8-1.8V17
	h2.7v40.4c0,1,0.8,1.8,1.8,1.8s1.8-0.8,1.8-1.8V28.6l5.8-8c2,0.8,4.3,1.7,6.7,2.4v9.2c0,0.2,0.1,0.5,0.2,0.7
	c0.1,0.3,3.7,7.2,16.1,15.1c11.8,7.5,25.5,11.5,26.1,11.6c0.1,0,0.3,0.1,0.5,0.1c0.7,0,1.4-0.5,1.6-1.2C99.4,57.7,98.9,56.8,98,56.5
	z"/>
</svg>
