<?xml version="1.0" encoding="utf-8"?>
<!-- Generator: Adobe Illustrator 19.2.0, SVG Export Plug-In . SVG Version: 6.00 Build 0)  -->
<!DOCTYPE svg PUBLIC "-//W3C//DTD SVG 1.1//EN" "http://www.w3.org/Graphics/SVG/1.1/DTD/svg11.dtd">
<svg version="1.1" id="Layer_1" xmlns="http://www.w3.org/2000/svg" xmlns:xlink="http://www.w3.org/1999/xlink" x="0px" y="0px"
	 viewBox="0 0 70.5 92.5" style="enable-background:new 0 0 70.5 92.5;" xml:space="preserve">
<style type="text/css">
	.st0{fill:#CC0000;}
</style>
<g>
	<path class="st0" d="M66.9,74.4c-0.3-2.6-1.1-5.1-2.2-7.6c-2.1-4.9-5-9.5-8.1-13.9c-1.2-1.8-2.5-3.5-3.9-5.2
		c-0.2-0.3-0.4-0.4-0.7,0c-2.5,3.2-4.9,6.5-7.1,9.9c-2.6,4.1-4.9,8.3-6.3,13c-1.1,3.5-1.3,7,0.1,10.5c2.5,6.2,9.2,9.9,16.2,8.8
		C61.8,88.8,67.1,82.7,67,76C67,75.4,67,74.9,66.9,74.4z M47.7,80.7c-0.4,0.7-1.2,1.1-2,0.9c-1.2-0.2-2-0.9-2.6-1.8
		c-1.4-2.3-1.4-4.8-0.8-7.5c0.5-2.3,1.5-4.5,2.5-6.6c0-0.1,0.1-0.1,0.2-0.2c-0.3,1.6-0.5,3.1-0.5,4.6c0.1,2.6,0.8,5,2.2,7.2
		c0.3,0.5,0.6,0.9,0.9,1.3C47.9,79.3,48.1,79.9,47.7,80.7z"/>
	<path class="st0" d="M42.2,33.4h3.7v5.3H59V26.9c0-3.6-2.9-6.5-6.5-6.5H42.2c-1.7-2.7-4.5-4.6-7.7-5.3v-3.4c0.8-0.5,1.5-1.1,2-2
		h3.8c1.3,0,2.4-1.1,2.4-2.4S41.5,5,40.2,5h-3.8c-0.8-1.5-2.5-2.6-4.3-2.6c-1.9,0-3.5,1-4.3,2.6H24c-1.3,0-2.4,1.1-2.4,2.4
		s1.1,2.4,2.4,2.4h3.8c0.5,0.8,1.1,1.5,2,2v3.4c-3.2,0.6-6,2.6-7.7,5.3h-9.9v13.1H22c2.1,3.3,5.9,5.5,10.1,5.5
		C36.4,38.9,40.1,36.7,42.2,33.4z"/>
	<path class="st0" d="M46.1,40.9c-1.3,0-2.4,1.1-2.4,2.4s1.1,2.4,2.4,2.4h12.6c1.3,0,2.4-1.1,2.4-2.4s-1.1-2.4-2.4-2.4H46.1z"/>
	<path class="st0" d="M7.7,16.1H2.3v21.7h5.4c1,0,1.9-0.8,1.9-1.9v-18C9.5,16.9,8.7,16.1,7.7,16.1z"/>
</g>
</svg>
